<svg width="376" height="381" viewBox="0 0 376 381" fill="none" xmlns="http://www.w3.org/2000/svg">
<g filter="url(#filter0_dddddd_103_3)">
<path d="M130.122 68.936L169.002 149.288C170.634 152.552 171.45 155 171.45 156.632C171.45 160.088 168.666 163.208 163.098 165.992C159.834 167.624 157.242 168.44 155.322 168.44C153.498 168.44 151.962 168.008 150.714 167.144C149.562 166.28 148.698 165.368 148.122 164.408C147.642 163.448 146.922 162.008 145.962 160.088L138.474 144.536H98.586L91.098 160.088C90.138 162.008 89.37 163.4 88.794 164.264C88.314 165.128 87.45 166.04 86.202 167C85.05 167.864 83.514 168.296 81.594 168.296C79.77 168.296 77.226 167.48 73.962 165.848C68.394 163.16 65.61 160.088 65.61 156.632C65.61 155 66.426 152.552 68.058 149.288L106.938 68.792C107.994 66.584 109.578 64.808 111.69 63.464C113.898 62.12 116.202 61.448 118.602 61.448C123.786 61.448 127.626 63.944 130.122 68.936ZM118.458 103.496L108.954 123.224H128.106L118.458 103.496ZM231.735 61.304L258.375 61.448C272.295 61.448 284.535 66.488 295.095 76.568C305.655 86.552 310.935 98.888 310.935 113.576C310.935 128.168 305.751 140.696 295.383 151.16C285.111 161.624 272.631 166.856 257.943 166.856H231.591C225.735 166.856 222.087 165.656 220.647 163.256C219.495 161.24 218.919 158.168 218.919 154.04V73.976C218.919 71.672 218.967 69.992 219.063 68.936C219.255 67.88 219.735 66.632 220.503 65.192C221.847 62.6 225.591 61.304 231.735 61.304ZM258.375 141.368C265.287 141.368 271.527 138.824 277.095 133.736C282.663 128.552 285.447 122.072 285.447 114.296C285.447 106.52 282.711 100.04 277.239 94.856C271.863 89.576 265.527 86.936 258.231 86.936H244.407V141.368H258.375ZM205.995 210.48C206.763 211.92 207.195 213.216 207.291 214.368C207.483 215.52 207.579 217.2 207.579 219.408V299.328C207.579 305.952 205.755 309.84 202.107 310.992C200.283 311.568 197.979 311.856 195.195 311.856C192.411 311.856 190.203 311.616 188.571 311.136C186.939 310.656 185.691 310.08 184.827 309.408C183.963 308.736 183.291 307.776 182.811 306.528C182.331 304.896 182.091 302.4 182.091 299.04V250.8C179.691 253.776 176.187 258.528 171.579 265.056C166.971 271.488 164.043 275.52 162.795 277.152C161.547 278.784 160.683 279.936 160.203 280.608C159.723 281.184 158.523 282.048 156.603 283.2C154.779 284.256 152.763 284.784 150.555 284.784C148.443 284.784 146.475 284.304 144.651 283.344C142.923 282.288 141.675 281.28 140.907 280.32L139.755 278.736C137.835 276.336 134.043 271.248 128.379 263.472C122.715 255.6 119.643 251.376 119.163 250.8V299.328C119.163 301.536 119.067 303.216 118.875 304.368C118.779 305.424 118.347 306.624 117.579 307.968C116.139 310.56 112.395 311.856 106.347 311.856C100.491 311.856 96.8434 310.56 95.4034 307.968C94.6354 306.624 94.1554 305.376 93.9634 304.224C93.8674 303.072 93.8194 301.344 93.8194 299.04V219.12C93.8194 216.912 93.8674 215.28 93.9634 214.224C94.1554 213.072 94.6354 211.776 95.4034 210.336C96.8434 207.84 100.587 206.592 106.635 206.592C109.227 206.592 111.435 206.928 113.259 207.6C115.179 208.176 116.427 208.8 117.003 209.472L117.867 210.336L150.555 253.248C166.875 231.648 177.771 217.392 183.243 210.48C184.875 207.888 188.715 206.592 194.763 206.592C200.907 206.592 204.651 207.888 205.995 210.48ZM258.716 219.12C258.716 216.912 258.764 215.28 258.86 214.224C259.052 213.072 259.532 211.776 260.3 210.336C261.644 207.744 265.388 206.448 271.532 206.448C278.252 206.448 282.236 208.224 283.484 211.776C283.964 213.408 284.204 215.904 284.204 219.264V299.328C284.204 301.632 284.108 303.312 283.916 304.368C283.82 305.424 283.388 306.672 282.62 308.112C281.276 310.704 277.532 312 271.388 312C264.668 312 260.732 310.176 259.58 306.528C259.004 304.992 258.716 302.544 258.716 299.184V219.12Z" fill="white"/>
<path d="M130.122 68.936L148.125 60.2248L148.069 60.1079L148.011 59.9917L130.122 68.936ZM169.002 149.288L150.999 157.999L151.055 158.116L151.113 158.232L169.002 149.288ZM163.098 165.992L154.154 148.103L154.154 148.103L163.098 165.992ZM150.714 167.144L138.714 183.144L139.018 183.372L139.33 183.588L150.714 167.144ZM148.122 164.408L130.233 173.352L130.577 174.039L130.972 174.698L148.122 164.408ZM145.962 160.088L127.942 168.764L128.007 168.899L128.073 169.032L145.962 160.088ZM138.474 144.536L156.494 135.86L151.042 124.536H138.474V144.536ZM98.586 144.536V124.536H86.0181L80.566 135.86L98.586 144.536ZM91.098 160.088L108.987 169.032L109.053 168.899L109.118 168.764L91.098 160.088ZM88.794 164.264L72.153 153.17L71.704 153.844L71.3109 154.551L88.794 164.264ZM86.202 167L98.202 183L98.2996 182.927L98.3962 182.852L86.202 167ZM73.962 165.848L82.9063 147.959L82.782 147.897L82.657 147.837L73.962 165.848ZM68.058 149.288L85.9465 158.232L86.0078 158.11L86.0673 157.987L68.058 149.288ZM106.938 68.792L124.947 77.4906L124.964 77.4559L124.981 77.4211L106.938 68.792ZM111.69 63.464L101.291 46.38L101.121 46.4837L100.952 46.5908L111.69 63.464ZM118.458 103.496L136.425 94.7094L118.323 57.6953L100.44 94.8157L118.458 103.496ZM108.954 123.224L90.9359 114.544L77.1191 143.224H108.954V123.224ZM128.106 123.224V143.224H160.151L146.073 114.437L128.106 123.224ZM112.119 77.6472L150.999 157.999L187.005 140.577L148.125 60.2248L112.119 77.6472ZM151.113 158.232C151.376 158.756 151.562 159.163 151.69 159.461C151.82 159.765 151.867 159.904 151.864 159.897C151.862 159.889 151.841 159.827 151.81 159.714C151.78 159.602 151.734 159.421 151.685 159.177C151.596 158.729 151.45 157.842 151.45 156.632H191.45C191.45 149.903 188.601 143.764 186.891 140.344L151.113 158.232ZM151.45 156.632C151.45 154.728 151.85 152.925 152.511 151.364C153.149 149.855 153.92 148.83 154.439 148.248C155.346 147.232 155.676 147.342 154.154 148.103L172.042 183.881C178.812 180.496 191.45 172.346 191.45 156.632H151.45ZM154.154 148.103C153.683 148.339 153.322 148.502 153.062 148.61C152.8 148.72 152.684 148.756 152.7 148.751C152.712 148.747 152.931 148.678 153.329 148.606C153.721 148.535 154.405 148.44 155.322 148.44V188.44C162.039 188.44 168.07 185.866 172.042 183.881L154.154 148.103ZM155.322 148.44C156.73 148.44 159.375 148.815 162.098 150.7L139.33 183.588C144.549 187.201 150.266 188.44 155.322 188.44V148.44ZM162.714 151.144C163.065 151.408 164.195 152.324 165.272 154.118L130.972 174.698C133.201 178.412 136.059 181.152 138.714 183.144L162.714 151.144ZM166.011 155.464C166.01 155.462 166.009 155.46 166.008 155.458C166.007 155.456 166.006 155.454 166.005 155.452C166.004 155.451 166.003 155.449 166.002 155.447C166.001 155.445 166 155.443 165.999 155.441C165.998 155.439 165.997 155.437 165.996 155.435C165.995 155.434 165.995 155.432 165.994 155.43C165.993 155.428 165.992 155.426 165.991 155.424C165.99 155.422 165.989 155.42 165.988 155.418C165.987 155.416 165.986 155.415 165.985 155.413C165.984 155.411 165.983 155.409 165.982 155.407C165.981 155.405 165.98 155.403 165.979 155.401C165.978 155.399 165.977 155.397 165.976 155.395C165.975 155.394 165.974 155.392 165.974 155.39C165.973 155.388 165.972 155.386 165.971 155.384C165.97 155.382 165.969 155.38 165.968 155.378C165.967 155.376 165.966 155.374 165.965 155.372C165.964 155.37 165.963 155.368 165.962 155.367C165.961 155.365 165.96 155.363 165.959 155.361C165.958 155.359 165.957 155.357 165.956 155.355C165.955 155.353 165.954 155.351 165.953 155.349C165.952 155.347 165.951 155.345 165.95 155.343C165.949 155.341 165.948 155.339 165.947 155.337C165.946 155.335 165.945 155.333 165.944 155.331C165.943 155.329 165.942 155.328 165.941 155.326C165.94 155.324 165.939 155.322 165.939 155.32C165.938 155.318 165.937 155.316 165.936 155.314C165.935 155.312 165.934 155.31 165.933 155.308C165.932 155.306 165.931 155.304 165.93 155.302C165.929 155.3 165.928 155.298 165.927 155.296C165.926 155.294 165.925 155.292 165.924 155.29C165.923 155.288 165.922 155.286 165.921 155.284C165.92 155.282 165.919 155.28 165.918 155.278C165.917 155.276 165.916 155.274 165.915 155.272C165.914 155.27 165.913 155.268 165.912 155.266C165.911 155.264 165.91 155.262 165.909 155.26C165.908 155.258 165.907 155.256 165.906 155.254C165.905 155.252 165.904 155.25 165.903 155.248C165.902 155.246 165.901 155.244 165.9 155.242C165.899 155.24 165.898 155.238 165.897 155.236C165.896 155.234 165.895 155.232 165.894 155.23C165.893 155.228 165.892 155.226 165.891 155.224C165.89 155.222 165.889 155.22 165.888 155.218C165.887 155.216 165.886 155.214 165.885 155.212C165.884 155.21 165.882 155.208 165.881 155.206C165.88 155.204 165.879 155.202 165.878 155.199C165.877 155.197 165.876 155.195 165.875 155.193C165.874 155.191 165.873 155.189 165.872 155.187C165.871 155.185 165.87 155.183 165.869 155.181C165.868 155.179 165.867 155.177 165.866 155.175C165.865 155.173 165.864 155.171 165.863 155.169C165.862 155.167 165.861 155.165 165.86 155.163C165.859 155.161 165.858 155.158 165.857 155.156C165.856 155.154 165.855 155.152 165.854 155.15C165.853 155.148 165.852 155.146 165.851 155.144C165.85 155.142 165.849 155.14 165.848 155.138C165.847 155.136 165.845 155.134 165.844 155.132C165.843 155.129 165.842 155.127 165.841 155.125C165.84 155.123 165.839 155.121 165.838 155.119C165.837 155.117 165.836 155.115 165.835 155.113C165.834 155.111 165.833 155.109 165.832 155.106C165.831 155.104 165.83 155.102 165.829 155.1C165.828 155.098 165.827 155.096 165.826 155.094C165.825 155.092 165.824 155.09 165.822 155.088C165.821 155.085 165.82 155.083 165.819 155.081C165.818 155.079 165.817 155.077 165.816 155.075C165.815 155.073 165.814 155.071 165.813 155.069C165.812 155.066 165.811 155.064 165.81 155.062C165.809 155.06 165.808 155.058 165.807 155.056C165.806 155.054 165.804 155.052 165.803 155.049C165.802 155.047 165.801 155.045 165.8 155.043C165.799 155.041 165.798 155.039 165.797 155.037C165.796 155.035 165.795 155.032 165.794 155.03C165.793 155.028 165.792 155.026 165.791 155.024C165.79 155.022 165.788 155.02 165.787 155.017C165.786 155.015 165.785 155.013 165.784 155.011C165.783 155.009 165.782 155.007 165.781 155.005C165.78 155.002 165.779 155 165.778 154.998C165.777 154.996 165.776 154.994 165.774 154.992C165.773 154.989 165.772 154.987 165.771 154.985C165.77 154.983 165.769 154.981 165.768 154.979C165.767 154.976 165.766 154.974 165.765 154.972C165.764 154.97 165.763 154.968 165.761 154.966C165.76 154.963 165.759 154.961 165.758 154.959C165.757 154.957 165.756 154.955 165.755 154.952C165.754 154.95 165.753 154.948 165.752 154.946C165.751 154.944 165.749 154.942 165.748 154.939C165.747 154.937 165.746 154.935 165.745 154.933C165.744 154.931 165.743 154.928 165.742 154.926C165.741 154.924 165.74 154.922 165.738 154.92C165.737 154.917 165.736 154.915 165.735 154.913C165.734 154.911 165.733 154.909 165.732 154.906C165.731 154.904 165.73 154.902 165.729 154.9C165.727 154.898 165.726 154.895 165.725 154.893C165.724 154.891 165.723 154.889 165.722 154.886C165.721 154.884 165.72 154.882 165.719 154.88C165.717 154.878 165.716 154.875 165.715 154.873C165.714 154.871 165.713 154.869 165.712 154.866C165.711 154.864 165.71 154.862 165.709 154.86C165.707 154.857 165.706 154.855 165.705 154.853C165.704 154.851 165.703 154.849 165.702 154.846C165.701 154.844 165.7 154.842 165.698 154.84C165.697 154.837 165.696 154.835 165.695 154.833C165.694 154.831 165.693 154.828 165.692 154.826C165.691 154.824 165.689 154.822 165.688 154.819C165.687 154.817 165.686 154.815 165.685 154.813C165.684 154.81 165.683 154.808 165.682 154.806C165.68 154.804 165.679 154.801 165.678 154.799C165.677 154.797 165.676 154.794 165.675 154.792C165.674 154.79 165.672 154.788 165.671 154.785C165.67 154.783 165.669 154.781 165.668 154.779C165.667 154.776 165.666 154.774 165.665 154.772C165.663 154.769 165.662 154.767 165.661 154.765C165.66 154.763 165.659 154.76 165.658 154.758C165.657 154.756 165.655 154.753 165.654 154.751C165.653 154.749 165.652 154.747 165.651 154.744C165.65 154.742 165.648 154.74 165.647 154.737C165.646 154.735 165.645 154.733 165.644 154.73C165.643 154.728 165.642 154.726 165.64 154.723C165.639 154.721 165.638 154.719 165.637 154.717C165.636 154.714 165.635 154.712 165.633 154.71C165.632 154.707 165.631 154.705 165.63 154.703C165.629 154.7 165.628 154.698 165.627 154.696C165.625 154.693 165.624 154.691 165.623 154.689C165.622 154.686 165.621 154.684 165.62 154.682C165.618 154.679 165.617 154.677 165.616 154.675C165.615 154.672 165.614 154.67 165.613 154.668C165.611 154.665 165.61 154.663 165.609 154.661C165.608 154.658 165.607 154.656 165.606 154.654C165.604 154.651 165.603 154.649 165.602 154.647C165.601 154.644 165.6 154.642 165.599 154.64C165.597 154.637 165.596 154.635 165.595 154.633C165.594 154.63 165.593 154.628 165.591 154.626C165.59 154.623 165.589 154.621 165.588 154.618C165.587 154.616 165.586 154.614 165.584 154.611C165.583 154.609 165.582 154.607 165.581 154.604C165.58 154.602 165.578 154.6 165.577 154.597C165.576 154.595 165.575 154.592 165.574 154.59C165.572 154.588 165.571 154.585 165.57 154.583C165.569 154.58 165.568 154.578 165.567 154.576C165.565 154.573 165.564 154.571 165.563 154.569C165.562 154.566 165.561 154.564 165.559 154.561C165.558 154.559 165.557 154.557 165.556 154.554C165.555 154.552 165.553 154.549 165.552 154.547C165.551 154.545 165.55 154.542 165.549 154.54C165.547 154.537 165.546 154.535 165.545 154.533C165.544 154.53 165.543 154.528 165.541 154.525C165.54 154.523 165.539 154.521 165.538 154.518C165.537 154.516 165.535 154.513 165.534 154.511C165.533 154.508 165.532 154.506 165.531 154.504C165.529 154.501 165.528 154.499 165.527 154.496C165.526 154.494 165.524 154.492 165.523 154.489C165.522 154.487 165.521 154.484 165.52 154.482C165.518 154.479 165.517 154.477 165.516 154.475C165.515 154.472 165.514 154.47 165.512 154.467C165.511 154.465 165.51 154.462 165.509 154.46C165.507 154.457 165.506 154.455 165.505 154.453C165.504 154.45 165.503 154.448 165.501 154.445C165.5 154.443 165.499 154.44 165.498 154.438C165.496 154.435 165.495 154.433 165.494 154.43C165.493 154.428 165.491 154.426 165.49 154.423C165.489 154.421 165.488 154.418 165.487 154.416C165.485 154.413 165.484 154.411 165.483 154.408C165.482 154.406 165.48 154.403 165.479 154.401C165.478 154.398 165.477 154.396 165.475 154.393C165.474 154.391 165.473 154.389 165.472 154.386C165.47 154.384 165.469 154.381 165.468 154.379C165.467 154.376 165.466 154.374 165.464 154.371C165.463 154.369 165.462 154.366 165.461 154.364C165.459 154.361 165.458 154.359 165.457 154.356C165.456 154.354 165.454 154.351 165.453 154.349C165.452 154.346 165.451 154.344 165.449 154.341C165.448 154.339 165.447 154.336 165.446 154.334C165.444 154.331 165.443 154.329 165.442 154.326C165.441 154.324 165.439 154.321 165.438 154.319C165.437 154.316 165.436 154.314 165.434 154.311C165.433 154.309 165.432 154.306 165.43 154.304C165.429 154.301 165.428 154.299 165.427 154.296C165.425 154.293 165.424 154.291 165.423 154.288C165.422 154.286 165.42 154.283 165.419 154.281C165.418 154.278 165.417 154.276 165.415 154.273C165.414 154.271 165.413 154.268 165.412 154.266C165.41 154.263 165.409 154.261 165.408 154.258C165.406 154.255 165.405 154.253 165.404 154.25C165.403 154.248 165.401 154.245 165.4 154.243C165.399 154.24 165.398 154.238 165.396 154.235C165.395 154.233 165.394 154.23 165.392 154.227C165.391 154.225 165.39 154.222 165.389 154.22C165.387 154.217 165.386 154.215 165.385 154.212C165.383 154.21 165.382 154.207 165.381 154.204C165.38 154.202 165.378 154.199 165.377 154.197C165.376 154.194 165.374 154.192 165.373 154.189C165.372 154.186 165.371 154.184 165.369 154.181C165.368 154.179 165.367 154.176 165.365 154.173C165.364 154.171 165.363 154.168 165.362 154.166C165.36 154.163 165.359 154.161 165.358 154.158C165.356 154.155 165.355 154.153 165.354 154.15C165.352 154.148 165.351 154.145 165.35 154.142C165.349 154.14 165.347 154.137 165.346 154.135C165.345 154.132 165.343 154.129 165.342 154.127C165.341 154.124 165.339 154.122 165.338 154.119C165.337 154.116 165.336 154.114 165.334 154.111C165.333 154.109 165.332 154.106 165.33 154.103C165.329 154.101 165.328 154.098 165.326 154.095C165.325 154.093 165.324 154.09 165.322 154.088C165.321 154.085 165.32 154.082 165.319 154.08C165.317 154.077 165.316 154.075 165.315 154.072C165.313 154.069 165.312 154.067 165.311 154.064C165.309 154.061 165.308 154.059 165.307 154.056C165.305 154.053 165.304 154.051 165.303 154.048C165.301 154.046 165.3 154.043 165.299 154.04C165.297 154.038 165.296 154.035 165.295 154.032C165.294 154.03 165.292 154.027 165.291 154.024C165.29 154.022 165.288 154.019 165.287 154.016C165.286 154.014 165.284 154.011 165.283 154.008C165.282 154.006 165.28 154.003 165.279 154C165.278 153.998 165.276 153.995 165.275 153.992C165.274 153.99 165.272 153.987 165.271 153.984C165.27 153.982 165.268 153.979 165.267 153.976C165.266 153.974 165.264 153.971 165.263 153.968C165.262 153.966 165.26 153.963 165.259 153.96C165.258 153.958 165.256 153.955 165.255 153.952C165.253 153.95 165.252 153.947 165.251 153.944C165.249 153.942 165.248 153.939 165.247 153.936C165.245 153.933 165.244 153.931 165.243 153.928C165.241 153.925 165.24 153.923 165.239 153.92C165.237 153.917 165.236 153.915 165.235 153.912C165.233 153.909 165.232 153.907 165.231 153.904C165.229 153.901 165.228 153.898 165.227 153.896C165.225 153.893 165.224 153.89 165.222 153.888C165.221 153.885 165.22 153.882 165.218 153.879C165.217 153.877 165.216 153.874 165.214 153.871C165.213 153.869 165.212 153.866 165.21 153.863C165.209 153.86 165.207 153.858 165.206 153.855C165.205 153.852 165.203 153.849 165.202 153.847C165.201 153.844 165.199 153.841 165.198 153.838C165.197 153.836 165.195 153.833 165.194 153.83C165.192 153.828 165.191 153.825 165.19 153.822C165.188 153.819 165.187 153.817 165.186 153.814C165.184 153.811 165.183 153.808 165.181 153.806C165.18 153.803 165.179 153.8 165.177 153.797C165.176 153.795 165.175 153.792 165.173 153.789C165.172 153.786 165.17 153.784 165.169 153.781C165.168 153.778 165.166 153.775 165.165 153.772C165.164 153.77 165.162 153.767 165.161 153.764C165.159 153.761 165.158 153.759 165.157 153.756C165.155 153.753 165.154 153.75 165.152 153.748C165.151 153.745 165.15 153.742 165.148 153.739C165.147 153.736 165.146 153.734 165.144 153.731C165.143 153.728 165.141 153.725 165.14 153.723C165.139 153.72 165.137 153.717 165.136 153.714C165.134 153.711 165.133 153.709 165.132 153.706C165.13 153.703 165.129 153.7 165.127 153.697C165.126 153.695 165.125 153.692 165.123 153.689C165.122 153.686 165.12 153.683 165.119 153.681C165.118 153.678 165.116 153.675 165.115 153.672C165.113 153.669 165.112 153.667 165.111 153.664C165.109 153.661 165.108 153.658 165.106 153.655C165.105 153.652 165.104 153.65 165.102 153.647C165.101 153.644 165.099 153.641 165.098 153.638C165.096 153.636 165.095 153.633 165.094 153.63C165.092 153.627 165.091 153.624 165.089 153.621C165.088 153.619 165.087 153.616 165.085 153.613C165.084 153.61 165.082 153.607 165.081 153.604C165.079 153.602 165.078 153.599 165.077 153.596C165.075 153.593 165.074 153.59 165.072 153.587C165.071 153.585 165.07 153.582 165.068 153.579C165.067 153.576 165.065 153.573 165.064 153.57C165.062 153.567 165.061 153.565 165.06 153.562C165.058 153.559 165.057 153.556 165.055 153.553C165.054 153.55 165.052 153.547 165.051 153.545C165.05 153.542 165.048 153.539 165.047 153.536C165.045 153.533 165.044 153.53 165.042 153.527C165.041 153.524 165.039 153.522 165.038 153.519C165.037 153.516 165.035 153.513 165.034 153.51C165.032 153.507 165.031 153.504 165.029 153.501C165.028 153.499 165.027 153.496 165.025 153.493C165.024 153.49 165.022 153.487 165.021 153.484C165.019 153.481 165.018 153.478 165.016 153.475C165.015 153.473 165.014 153.47 165.012 153.467C165.011 153.464 165.009 153.461 165.008 153.458C165.006 153.455 165.005 153.452 165.003 153.449C165.002 153.446 165 153.444 164.999 153.441C164.998 153.438 164.996 153.435 164.995 153.432C164.993 153.429 164.992 153.426 164.99 153.423C164.989 153.42 164.987 153.417 164.986 153.414C164.984 153.412 164.983 153.409 164.982 153.406C164.98 153.403 164.979 153.4 164.977 153.397C164.976 153.394 164.974 153.391 164.973 153.388C164.971 153.385 164.97 153.382 164.968 153.379C164.967 153.376 164.965 153.373 164.964 153.371C164.962 153.368 164.961 153.365 164.96 153.362C164.958 153.359 164.957 153.356 164.955 153.353C164.954 153.35 164.952 153.347 164.951 153.344C164.949 153.341 164.948 153.338 164.946 153.335C164.945 153.332 164.943 153.329 164.942 153.326C164.94 153.323 164.939 153.32 164.937 153.317C164.936 153.314 164.934 153.312 164.933 153.309C164.931 153.306 164.93 153.303 164.929 153.3C164.927 153.297 164.926 153.294 164.924 153.291C164.923 153.288 164.921 153.285 164.92 153.282C164.918 153.279 164.917 153.276 164.915 153.273C164.914 153.27 164.912 153.267 164.911 153.264C164.909 153.261 164.908 153.258 164.906 153.255C164.905 153.252 164.903 153.249 164.902 153.246C164.9 153.243 164.899 153.24 164.897 153.237C164.896 153.234 164.894 153.231 164.893 153.228C164.891 153.225 164.89 153.222 164.888 153.219C164.887 153.216 164.885 153.213 164.884 153.21C164.882 153.207 164.881 153.204 164.879 153.201C164.878 153.198 164.876 153.195 164.875 153.192C164.873 153.189 164.872 153.186 164.87 153.183C164.869 153.18 164.867 153.177 164.866 153.174C164.864 153.171 164.863 153.168 164.861 153.165C164.86 153.162 164.858 153.159 164.857 153.156C164.855 153.153 164.854 153.15 164.852 153.147C164.851 153.144 164.849 153.141 164.848 153.138C164.846 153.135 164.844 153.132 164.843 153.129C164.841 153.126 164.84 153.123 164.838 153.119C164.837 153.116 164.835 153.113 164.834 153.11C164.832 153.107 164.831 153.104 164.829 153.101C164.828 153.098 164.826 153.095 164.825 153.092C164.823 153.089 164.822 153.086 164.82 153.083C164.819 153.08 164.817 153.077 164.816 153.074C164.814 153.071 164.813 153.068 164.811 153.065C164.809 153.062 164.808 153.058 164.806 153.055C164.805 153.052 164.803 153.049 164.802 153.046C164.8 153.043 164.799 153.04 164.797 153.037C164.796 153.034 164.794 153.031 164.793 153.028C164.791 153.025 164.789 153.022 164.788 153.019C164.786 153.015 164.785 153.012 164.783 153.009C164.782 153.006 164.78 153.003 164.779 153C164.777 152.997 164.776 152.994 164.774 152.991C164.773 152.988 164.771 152.985 164.769 152.981C164.768 152.978 164.766 152.975 164.765 152.972C164.763 152.969 164.762 152.966 164.76 152.963C164.759 152.96 164.757 152.957 164.755 152.954C164.754 152.95 164.752 152.947 164.751 152.944C164.749 152.941 164.748 152.938 164.746 152.935C164.745 152.932 164.743 152.929 164.741 152.926C164.74 152.922 164.738 152.919 164.737 152.916C164.735 152.913 164.734 152.91 164.732 152.907C164.731 152.904 164.729 152.901 164.727 152.897C164.726 152.894 164.724 152.891 164.723 152.888C164.721 152.885 164.72 152.882 164.718 152.879C164.716 152.876 164.715 152.872 164.713 152.869C164.712 152.866 164.71 152.863 164.709 152.86C164.707 152.857 164.705 152.854 164.704 152.85C164.702 152.847 164.701 152.844 164.699 152.841C164.698 152.838 164.696 152.835 164.694 152.832C164.693 152.828 164.691 152.825 164.69 152.822C164.688 152.819 164.687 152.816 164.685 152.813C164.683 152.809 164.682 152.806 164.68 152.803C164.679 152.8 164.677 152.797 164.675 152.794C164.674 152.79 164.672 152.787 164.671 152.784C164.669 152.781 164.668 152.778 164.666 152.775C164.664 152.771 164.663 152.768 164.661 152.765C164.66 152.762 164.658 152.759 164.656 152.756C164.655 152.752 164.653 152.749 164.652 152.746C164.65 152.743 164.648 152.74 164.647 152.736C164.645 152.733 164.644 152.73 164.642 152.727C164.64 152.724 164.639 152.72 164.637 152.717C164.636 152.714 164.634 152.711 164.632 152.708C164.631 152.704 164.629 152.701 164.628 152.698C164.626 152.695 164.624 152.692 164.623 152.688C164.621 152.685 164.62 152.682 164.618 152.679C164.616 152.676 164.615 152.672 164.613 152.669C164.612 152.666 164.61 152.663 164.608 152.659C164.607 152.656 164.605 152.653 164.604 152.65C164.602 152.647 164.6 152.643 164.599 152.64C164.597 152.637 164.596 152.634 164.594 152.63C164.592 152.627 164.591 152.624 164.589 152.621C164.587 152.618 164.586 152.614 164.584 152.611C164.583 152.608 164.581 152.605 164.579 152.601C164.578 152.598 164.576 152.595 164.574 152.592C164.573 152.588 164.571 152.585 164.57 152.582C164.568 152.579 164.566 152.575 164.565 152.572C164.563 152.569 164.561 152.566 164.56 152.562C164.558 152.559 164.557 152.556 164.555 152.553C164.553 152.549 164.552 152.546 164.55 152.543C164.548 152.54 164.547 152.536 164.545 152.533C164.544 152.53 164.542 152.526 164.54 152.523C164.539 152.52 164.537 152.517 164.535 152.513C164.534 152.51 164.532 152.507 164.53 152.504C164.529 152.5 164.527 152.497 164.526 152.494C164.524 152.49 164.522 152.487 164.521 152.484C164.519 152.481 164.517 152.477 164.516 152.474C164.514 152.471 164.512 152.467 164.511 152.464C164.509 152.461 164.507 152.458 164.506 152.454C164.504 152.451 164.503 152.448 164.501 152.444C164.499 152.441 164.498 152.438 164.496 152.434C164.494 152.431 164.493 152.428 164.491 152.425C164.489 152.421 164.488 152.418 164.486 152.415C164.484 152.411 164.483 152.408 164.481 152.405C164.479 152.401 164.478 152.398 164.476 152.395C164.474 152.391 164.473 152.388 164.471 152.385C164.469 152.381 164.468 152.378 164.466 152.375C164.464 152.371 164.463 152.368 164.461 152.365C164.459 152.362 164.458 152.358 164.456 152.355C164.454 152.352 164.453 152.348 164.451 152.345C164.449 152.342 164.448 152.338 164.446 152.335C164.444 152.331 164.443 152.328 164.441 152.325C164.439 152.321 164.438 152.318 164.436 152.315C164.434 152.311 164.433 152.308 164.431 152.305C164.429 152.301 164.428 152.298 164.426 152.295C164.424 152.291 164.423 152.288 164.421 152.285C164.419 152.281 164.418 152.278 164.416 152.275C164.414 152.271 164.413 152.268 164.411 152.264C164.409 152.261 164.408 152.258 164.406 152.254C164.404 152.251 164.402 152.248 164.401 152.244C164.399 152.241 164.397 152.237 164.396 152.234C164.394 152.231 164.392 152.227 164.391 152.224C164.389 152.221 164.387 152.217 164.386 152.214C164.384 152.21 164.382 152.207 164.381 152.204C164.379 152.2 164.377 152.197 164.375 152.193C164.374 152.19 164.372 152.187 164.37 152.183C164.369 152.18 164.367 152.177 164.365 152.173C164.364 152.17 164.362 152.166 164.36 152.163C164.358 152.16 164.357 152.156 164.355 152.153C164.353 152.149 164.352 152.146 164.35 152.142C164.348 152.139 164.347 152.136 164.345 152.132C164.343 152.129 164.341 152.125 164.34 152.122C164.338 152.119 164.336 152.115 164.335 152.112C164.333 152.108 164.331 152.105 164.329 152.101C164.328 152.098 164.326 152.095 164.324 152.091C164.323 152.088 164.321 152.084 164.319 152.081C164.317 152.077 164.316 152.074 164.314 152.071C164.312 152.067 164.311 152.064 164.309 152.06C164.307 152.057 164.305 152.053 164.304 152.05C164.302 152.047 164.3 152.043 164.298 152.04C164.297 152.036 164.295 152.033 164.293 152.029C164.292 152.026 164.29 152.022 164.288 152.019C164.286 152.015 164.285 152.012 164.283 152.009C164.281 152.005 164.28 152.002 164.278 151.998C164.276 151.995 164.274 151.991 164.273 151.988C164.271 151.984 164.269 151.981 164.267 151.977C164.266 151.974 164.264 151.97 164.262 151.967C164.26 151.964 164.259 151.96 164.257 151.957C164.255 151.953 164.253 151.95 164.252 151.946C164.25 151.943 164.248 151.939 164.247 151.936C164.245 151.932 164.243 151.929 164.241 151.925C164.24 151.922 164.238 151.918 164.236 151.915C164.234 151.911 164.233 151.908 164.231 151.904C164.229 151.901 164.227 151.897 164.226 151.894C164.224 151.89 164.222 151.887 164.22 151.883C164.219 151.88 164.217 151.876 164.215 151.873C164.213 151.869 164.212 151.866 164.21 151.862C164.208 151.859 164.206 151.855 164.205 151.852C164.203 151.848 164.201 151.845 164.199 151.841C164.198 151.838 164.196 151.834 164.194 151.831C164.192 151.827 164.19 151.824 164.189 151.82C164.187 151.817 164.185 151.813 164.183 151.81C164.182 151.806 164.18 151.802 164.178 151.799C164.176 151.795 164.175 151.792 164.173 151.788C164.171 151.785 164.169 151.781 164.168 151.778C164.166 151.774 164.164 151.771 164.162 151.767C164.16 151.764 164.159 151.76 164.157 151.757C164.155 151.753 164.153 151.749 164.152 151.746C164.15 151.742 164.148 151.739 164.146 151.735C164.145 151.732 164.143 151.728 164.141 151.725C164.139 151.721 164.137 151.717 164.136 151.714C164.134 151.71 164.132 151.707 164.13 151.703C164.128 151.7 164.127 151.696 164.125 151.693C164.123 151.689 164.121 151.685 164.12 151.682C164.118 151.678 164.116 151.675 164.114 151.671C164.112 151.668 164.111 151.664 164.109 151.66C164.107 151.657 164.105 151.653 164.103 151.65C164.102 151.646 164.1 151.642 164.098 151.639C164.096 151.635 164.095 151.632 164.093 151.628C164.091 151.625 164.089 151.621 164.087 151.617C164.086 151.614 164.084 151.61 164.082 151.607C164.08 151.603 164.078 151.599 164.077 151.596C164.075 151.592 164.073 151.589 164.071 151.585C164.069 151.581 164.068 151.578 164.066 151.574C164.064 151.571 164.062 151.567 164.06 151.563C164.059 151.56 164.057 151.556 164.055 151.552C164.053 151.549 164.051 151.545 164.049 151.542C164.048 151.538 164.046 151.534 164.044 151.531C164.042 151.527 164.04 151.524 164.039 151.52C164.037 151.516 164.035 151.513 164.033 151.509C164.031 151.505 164.03 151.502 164.028 151.498C164.026 151.494 164.024 151.491 164.022 151.487C164.02 151.484 164.019 151.48 164.017 151.476C164.015 151.473 164.013 151.469 164.011 151.465C164.01 151.462 164.008 151.458 164.006 151.454C164.004 151.451 164.002 151.447 164 151.443C163.999 151.44 163.997 151.436 163.995 151.433C163.993 151.429 163.991 151.425 163.989 151.422C163.988 151.418 163.986 151.414 163.984 151.411C163.982 151.407 163.98 151.403 163.978 151.4C163.977 151.396 163.975 151.392 163.973 151.389C163.971 151.385 163.969 151.381 163.967 151.378C163.966 151.374 163.964 151.37 163.962 151.367C163.96 151.363 163.958 151.359 163.956 151.356C163.955 151.352 163.953 151.348 163.951 151.344C163.949 151.341 163.947 151.337 163.945 151.333C163.944 151.33 163.942 151.326 163.94 151.322C163.938 151.319 163.936 151.315 163.934 151.311C163.932 151.308 163.931 151.304 163.929 151.3C163.927 151.296 163.925 151.293 163.923 151.289C163.921 151.285 163.92 151.282 163.918 151.278C163.916 151.274 163.914 151.271 163.912 151.267C163.91 151.263 163.908 151.259 163.907 151.256C163.905 151.252 163.903 151.248 163.901 151.245C163.899 151.241 163.897 151.237 163.895 151.233C163.894 151.23 163.892 151.226 163.89 151.222C163.888 151.218 163.886 151.215 163.884 151.211C163.882 151.207 163.88 151.204 163.879 151.2C163.877 151.196 163.875 151.192 163.873 151.189C163.871 151.185 163.869 151.181 163.867 151.177C163.866 151.174 163.864 151.17 163.862 151.166C163.86 151.162 163.858 151.159 163.856 151.155C163.854 151.151 163.852 151.147 163.851 151.144L128.073 169.032C128.075 169.036 128.077 169.04 128.079 169.044C128.081 169.047 128.083 169.051 128.085 169.055C128.087 169.058 128.088 169.062 128.09 169.066C128.092 169.07 128.094 169.073 128.096 169.077C128.098 169.081 128.1 169.085 128.102 169.088C128.103 169.092 128.105 169.096 128.107 169.1C128.109 169.103 128.111 169.107 128.113 169.111C128.115 169.114 128.116 169.118 128.118 169.122C128.12 169.126 128.122 169.129 128.124 169.133C128.126 169.137 128.128 169.141 128.129 169.144C128.131 169.148 128.133 169.152 128.135 169.155C128.137 169.159 128.139 169.163 128.141 169.166C128.142 169.17 128.144 169.174 128.146 169.178C128.148 169.181 128.15 169.185 128.152 169.189C128.154 169.192 128.155 169.196 128.157 169.2C128.159 169.203 128.161 169.207 128.163 169.211C128.165 169.215 128.166 169.218 128.168 169.222C128.17 169.226 128.172 169.229 128.174 169.233C128.176 169.237 128.177 169.24 128.179 169.244C128.181 169.248 128.183 169.251 128.185 169.255C128.187 169.259 128.189 169.262 128.19 169.266C128.192 169.27 128.194 169.273 128.196 169.277C128.198 169.281 128.2 169.284 128.201 169.288C128.203 169.292 128.205 169.295 128.207 169.299C128.209 169.303 128.211 169.306 128.212 169.31C128.214 169.314 128.216 169.317 128.218 169.321C128.22 169.325 128.221 169.328 128.223 169.332C128.225 169.336 128.227 169.339 128.229 169.343C128.231 169.347 128.232 169.35 128.234 169.354C128.236 169.358 128.238 169.361 128.24 169.365C128.242 169.368 128.243 169.372 128.245 169.376C128.247 169.379 128.249 169.383 128.251 169.387C128.252 169.39 128.254 169.394 128.256 169.398C128.258 169.401 128.26 169.405 128.262 169.408C128.263 169.412 128.265 169.416 128.267 169.419C128.269 169.423 128.271 169.427 128.272 169.43C128.274 169.434 128.276 169.437 128.278 169.441C128.28 169.445 128.281 169.448 128.283 169.452C128.285 169.455 128.287 169.459 128.289 169.463C128.29 169.466 128.292 169.47 128.294 169.473C128.296 169.477 128.298 169.481 128.299 169.484C128.301 169.488 128.303 169.491 128.305 169.495C128.307 169.499 128.308 169.502 128.31 169.506C128.312 169.509 128.314 169.513 128.316 169.517C128.317 169.52 128.319 169.524 128.321 169.527C128.323 169.531 128.325 169.535 128.326 169.538C128.328 169.542 128.33 169.545 128.332 169.549C128.334 169.552 128.335 169.556 128.337 169.56C128.339 169.563 128.341 169.567 128.342 169.57C128.344 169.574 128.346 169.577 128.348 169.581C128.35 169.585 128.351 169.588 128.353 169.592C128.355 169.595 128.357 169.599 128.359 169.602C128.36 169.606 128.362 169.61 128.364 169.613C128.366 169.617 128.367 169.62 128.369 169.624C128.371 169.627 128.373 169.631 128.375 169.634C128.376 169.638 128.378 169.641 128.38 169.645C128.382 169.649 128.383 169.652 128.385 169.656C128.387 169.659 128.389 169.663 128.39 169.666C128.392 169.67 128.394 169.673 128.396 169.677C128.398 169.68 128.399 169.684 128.401 169.687C128.403 169.691 128.405 169.695 128.406 169.698C128.408 169.702 128.41 169.705 128.412 169.709C128.413 169.712 128.415 169.716 128.417 169.719C128.419 169.723 128.42 169.726 128.422 169.73C128.424 169.733 128.426 169.737 128.427 169.74C128.429 169.744 128.431 169.747 128.433 169.751C128.434 169.754 128.436 169.758 128.438 169.761C128.44 169.765 128.442 169.768 128.443 169.772C128.445 169.775 128.447 169.779 128.448 169.782C128.45 169.786 128.452 169.789 128.454 169.793C128.455 169.796 128.457 169.8 128.459 169.803C128.461 169.807 128.462 169.81 128.464 169.814C128.466 169.817 128.468 169.821 128.469 169.824C128.471 169.828 128.473 169.831 128.475 169.835C128.476 169.838 128.478 169.842 128.48 169.845C128.482 169.849 128.483 169.852 128.485 169.856C128.487 169.859 128.489 169.862 128.49 169.866C128.492 169.869 128.494 169.873 128.495 169.876C128.497 169.88 128.499 169.883 128.501 169.887C128.502 169.89 128.504 169.894 128.506 169.897C128.508 169.901 128.509 169.904 128.511 169.907C128.513 169.911 128.515 169.914 128.516 169.918C128.518 169.921 128.52 169.925 128.521 169.928C128.523 169.932 128.525 169.935 128.527 169.939C128.528 169.942 128.53 169.945 128.532 169.949C128.533 169.952 128.535 169.956 128.537 169.959C128.539 169.963 128.54 169.966 128.542 169.969C128.544 169.973 128.545 169.976 128.547 169.98C128.549 169.983 128.551 169.987 128.552 169.99C128.554 169.993 128.556 169.997 128.557 170C128.559 170.004 128.561 170.007 128.563 170.011C128.564 170.014 128.566 170.017 128.568 170.021C128.569 170.024 128.571 170.028 128.573 170.031C128.575 170.034 128.576 170.038 128.578 170.041C128.58 170.045 128.581 170.048 128.583 170.051C128.585 170.055 128.586 170.058 128.588 170.062C128.59 170.065 128.592 170.068 128.593 170.072C128.595 170.075 128.597 170.079 128.598 170.082C128.6 170.085 128.602 170.089 128.603 170.092C128.605 170.096 128.607 170.099 128.608 170.102C128.61 170.106 128.612 170.109 128.614 170.112C128.615 170.116 128.617 170.119 128.619 170.123C128.62 170.126 128.622 170.129 128.624 170.133C128.625 170.136 128.627 170.139 128.629 170.143C128.63 170.146 128.632 170.15 128.634 170.153C128.635 170.156 128.637 170.16 128.639 170.163C128.641 170.166 128.642 170.17 128.644 170.173C128.646 170.176 128.647 170.18 128.649 170.183C128.651 170.187 128.652 170.19 128.654 170.193C128.656 170.197 128.657 170.2 128.659 170.203C128.661 170.207 128.662 170.21 128.664 170.213C128.666 170.217 128.667 170.22 128.669 170.223C128.671 170.227 128.672 170.23 128.674 170.233C128.676 170.237 128.677 170.24 128.679 170.243C128.681 170.247 128.682 170.25 128.684 170.253C128.686 170.257 128.687 170.26 128.689 170.263C128.691 170.267 128.692 170.27 128.694 170.273C128.696 170.277 128.697 170.28 128.699 170.283C128.701 170.287 128.702 170.29 128.704 170.293C128.706 170.297 128.707 170.3 128.709 170.303C128.711 170.306 128.712 170.31 128.714 170.313C128.716 170.316 128.717 170.32 128.719 170.323C128.72 170.326 128.722 170.33 128.724 170.333C128.725 170.336 128.727 170.34 128.729 170.343C128.73 170.346 128.732 170.349 128.734 170.353C128.735 170.356 128.737 170.359 128.739 170.363C128.74 170.366 128.742 170.369 128.744 170.372C128.745 170.376 128.747 170.379 128.748 170.382C128.75 170.386 128.752 170.389 128.753 170.392C128.755 170.395 128.757 170.399 128.758 170.402C128.76 170.405 128.762 170.408 128.763 170.412C128.765 170.415 128.766 170.418 128.768 170.422C128.77 170.425 128.771 170.428 128.773 170.431C128.775 170.435 128.776 170.438 128.778 170.441C128.78 170.444 128.781 170.448 128.783 170.451C128.784 170.454 128.786 170.457 128.788 170.461C128.789 170.464 128.791 170.467 128.793 170.47C128.794 170.474 128.796 170.477 128.797 170.48C128.799 170.483 128.801 170.487 128.802 170.49C128.804 170.493 128.805 170.496 128.807 170.5C128.809 170.503 128.81 170.506 128.812 170.509C128.814 170.513 128.815 170.516 128.817 170.519C128.818 170.522 128.82 170.525 128.822 170.529C128.823 170.532 128.825 170.535 128.826 170.538C128.828 170.542 128.83 170.545 128.831 170.548C128.833 170.551 128.835 170.554 128.836 170.558C128.838 170.561 128.839 170.564 128.841 170.567C128.843 170.571 128.844 170.574 128.846 170.577C128.847 170.58 128.849 170.583 128.851 170.587C128.852 170.59 128.854 170.593 128.855 170.596C128.857 170.599 128.859 170.603 128.86 170.606C128.862 170.609 128.863 170.612 128.865 170.615C128.867 170.619 128.868 170.622 128.87 170.625C128.871 170.628 128.873 170.631 128.875 170.634C128.876 170.638 128.878 170.641 128.879 170.644C128.881 170.647 128.883 170.65 128.884 170.654C128.886 170.657 128.887 170.66 128.889 170.663C128.89 170.666 128.892 170.669 128.894 170.673C128.895 170.676 128.897 170.679 128.898 170.682C128.9 170.685 128.902 170.688 128.903 170.692C128.905 170.695 128.906 170.698 128.908 170.701C128.909 170.704 128.911 170.707 128.913 170.711C128.914 170.714 128.916 170.717 128.917 170.72C128.919 170.723 128.921 170.726 128.922 170.73C128.924 170.733 128.925 170.736 128.927 170.739C128.928 170.742 128.93 170.745 128.932 170.748C128.933 170.752 128.935 170.755 128.936 170.758C128.938 170.761 128.939 170.764 128.941 170.767C128.942 170.77 128.944 170.773 128.946 170.777C128.947 170.78 128.949 170.783 128.95 170.786C128.952 170.789 128.953 170.792 128.955 170.795C128.957 170.799 128.958 170.802 128.96 170.805C128.961 170.808 128.963 170.811 128.964 170.814C128.966 170.817 128.967 170.82 128.969 170.823C128.971 170.827 128.972 170.83 128.974 170.833C128.975 170.836 128.977 170.839 128.978 170.842C128.98 170.845 128.981 170.848 128.983 170.851C128.985 170.855 128.986 170.858 128.988 170.861C128.989 170.864 128.991 170.867 128.992 170.87C128.994 170.873 128.995 170.876 128.997 170.879C128.999 170.882 129 170.885 129.002 170.889C129.003 170.892 129.005 170.895 129.006 170.898C129.008 170.901 129.009 170.904 129.011 170.907C129.012 170.91 129.014 170.913 129.015 170.916C129.017 170.919 129.019 170.922 129.02 170.926C129.022 170.929 129.023 170.932 129.025 170.935C129.026 170.938 129.028 170.941 129.029 170.944C129.031 170.947 129.032 170.95 129.034 170.953C129.035 170.956 129.037 170.959 129.038 170.962C129.04 170.965 129.042 170.968 129.043 170.971C129.045 170.975 129.046 170.978 129.048 170.981C129.049 170.984 129.051 170.987 129.052 170.99C129.054 170.993 129.055 170.996 129.057 170.999C129.058 171.002 129.06 171.005 129.061 171.008C129.063 171.011 129.064 171.014 129.066 171.017C129.067 171.02 129.069 171.023 129.07 171.026C129.072 171.029 129.073 171.032 129.075 171.035C129.076 171.038 129.078 171.041 129.08 171.044C129.081 171.047 129.083 171.05 129.084 171.053C129.086 171.057 129.087 171.06 129.089 171.063C129.09 171.066 129.092 171.069 129.093 171.072C129.095 171.075 129.096 171.078 129.098 171.081C129.099 171.084 129.101 171.087 129.102 171.09C129.104 171.093 129.105 171.096 129.107 171.099C129.108 171.102 129.11 171.105 129.111 171.108C129.113 171.111 129.114 171.114 129.116 171.117C129.117 171.12 129.119 171.123 129.12 171.126C129.122 171.129 129.123 171.132 129.125 171.135C129.126 171.138 129.128 171.141 129.129 171.144C129.131 171.147 129.132 171.15 129.134 171.153C129.135 171.155 129.137 171.158 129.138 171.161C129.14 171.164 129.141 171.167 129.143 171.17C129.144 171.173 129.145 171.176 129.147 171.179C129.148 171.182 129.15 171.185 129.151 171.188C129.153 171.191 129.154 171.194 129.156 171.197C129.157 171.2 129.159 171.203 129.16 171.206C129.162 171.209 129.163 171.212 129.165 171.215C129.166 171.218 129.168 171.221 129.169 171.224C129.171 171.227 129.172 171.23 129.174 171.233C129.175 171.236 129.177 171.238 129.178 171.241C129.179 171.244 129.181 171.247 129.182 171.25C129.184 171.253 129.185 171.256 129.187 171.259C129.188 171.262 129.19 171.265 129.191 171.268C129.193 171.271 129.194 171.274 129.196 171.277C129.197 171.28 129.199 171.282 129.2 171.285C129.201 171.288 129.203 171.291 129.204 171.294C129.206 171.297 129.207 171.3 129.209 171.303C129.21 171.306 129.212 171.309 129.213 171.312C129.215 171.315 129.216 171.318 129.218 171.32C129.219 171.323 129.22 171.326 129.222 171.329C129.223 171.332 129.225 171.335 129.226 171.338C129.228 171.341 129.229 171.344 129.231 171.347C129.232 171.35 129.234 171.352 129.235 171.355C129.236 171.358 129.238 171.361 129.239 171.364C129.241 171.367 129.242 171.37 129.244 171.373C129.245 171.376 129.247 171.378 129.248 171.381C129.249 171.384 129.251 171.387 129.252 171.39C129.254 171.393 129.255 171.396 129.257 171.399C129.258 171.401 129.26 171.404 129.261 171.407C129.262 171.41 129.264 171.413 129.265 171.416C129.267 171.419 129.268 171.422 129.27 171.424C129.271 171.427 129.272 171.43 129.274 171.433C129.275 171.436 129.277 171.439 129.278 171.442C129.28 171.445 129.281 171.447 129.282 171.45C129.284 171.453 129.285 171.456 129.287 171.459C129.288 171.462 129.29 171.464 129.291 171.467C129.292 171.47 129.294 171.473 129.295 171.476C129.297 171.479 129.298 171.482 129.3 171.484C129.301 171.487 129.302 171.49 129.304 171.493C129.305 171.496 129.307 171.499 129.308 171.501C129.309 171.504 129.311 171.507 129.312 171.51C129.314 171.513 129.315 171.516 129.317 171.518C129.318 171.521 129.319 171.524 129.321 171.527C129.322 171.53 129.324 171.533 129.325 171.535C129.326 171.538 129.328 171.541 129.329 171.544C129.331 171.547 129.332 171.549 129.333 171.552C129.335 171.555 129.336 171.558 129.338 171.561C129.339 171.564 129.34 171.566 129.342 171.569C129.343 171.572 129.345 171.575 129.346 171.578C129.347 171.58 129.349 171.583 129.35 171.586C129.352 171.589 129.353 171.592 129.354 171.594C129.356 171.597 129.357 171.6 129.359 171.603C129.36 171.605 129.361 171.608 129.363 171.611C129.364 171.614 129.366 171.617 129.367 171.619C129.368 171.622 129.37 171.625 129.371 171.628C129.373 171.631 129.374 171.633 129.375 171.636C129.377 171.639 129.378 171.642 129.38 171.644C129.381 171.647 129.382 171.65 129.384 171.653C129.385 171.655 129.386 171.658 129.388 171.661C129.389 171.664 129.391 171.667 129.392 171.669C129.393 171.672 129.395 171.675 129.396 171.678C129.397 171.68 129.399 171.683 129.4 171.686C129.402 171.689 129.403 171.691 129.404 171.694C129.406 171.697 129.407 171.7 129.408 171.702C129.41 171.705 129.411 171.708 129.413 171.711C129.414 171.713 129.415 171.716 129.417 171.719C129.418 171.722 129.419 171.724 129.421 171.727C129.422 171.73 129.424 171.732 129.425 171.735C129.426 171.738 129.428 171.741 129.429 171.743C129.43 171.746 129.432 171.749 129.433 171.752C129.434 171.754 129.436 171.757 129.437 171.76C129.439 171.762 129.44 171.765 129.441 171.768C129.443 171.771 129.444 171.773 129.445 171.776C129.447 171.779 129.448 171.781 129.449 171.784C129.451 171.787 129.452 171.79 129.453 171.792C129.455 171.795 129.456 171.798 129.458 171.8C129.459 171.803 129.46 171.806 129.462 171.809C129.463 171.811 129.464 171.814 129.466 171.817C129.467 171.819 129.468 171.822 129.47 171.825C129.471 171.827 129.472 171.83 129.474 171.833C129.475 171.835 129.476 171.838 129.478 171.841C129.479 171.844 129.48 171.846 129.482 171.849C129.483 171.852 129.484 171.854 129.486 171.857C129.487 171.86 129.488 171.862 129.49 171.865C129.491 171.868 129.492 171.87 129.494 171.873C129.495 171.876 129.496 171.878 129.498 171.881C129.499 171.884 129.5 171.886 129.502 171.889C129.503 171.892 129.504 171.894 129.506 171.897C129.507 171.9 129.508 171.902 129.51 171.905C129.511 171.908 129.512 171.91 129.514 171.913C129.515 171.916 129.516 171.918 129.518 171.921C129.519 171.923 129.52 171.926 129.522 171.929C129.523 171.931 129.524 171.934 129.526 171.937C129.527 171.939 129.528 171.942 129.53 171.945C129.531 171.947 129.532 171.95 129.534 171.953C129.535 171.955 129.536 171.958 129.538 171.96C129.539 171.963 129.54 171.966 129.541 171.968C129.543 171.971 129.544 171.974 129.545 171.976C129.547 171.979 129.548 171.981 129.549 171.984C129.551 171.987 129.552 171.989 129.553 171.992C129.555 171.994 129.556 171.997 129.557 172C129.558 172.002 129.56 172.005 129.561 172.008C129.562 172.01 129.564 172.013 129.565 172.015C129.566 172.018 129.568 172.021 129.569 172.023C129.57 172.026 129.571 172.028 129.573 172.031C129.574 172.034 129.575 172.036 129.577 172.039C129.578 172.041 129.579 172.044 129.581 172.047C129.582 172.049 129.583 172.052 129.584 172.054C129.586 172.057 129.587 172.059 129.588 172.062C129.59 172.065 129.591 172.067 129.592 172.07C129.593 172.072 129.595 172.075 129.596 172.077C129.597 172.08 129.599 172.083 129.6 172.085C129.601 172.088 129.602 172.09 129.604 172.093C129.605 172.095 129.606 172.098 129.608 172.101C129.609 172.103 129.61 172.106 129.611 172.108C129.613 172.111 129.614 172.113 129.615 172.116C129.617 172.119 129.618 172.121 129.619 172.124C129.62 172.126 129.622 172.129 129.623 172.131C129.624 172.134 129.626 172.136 129.627 172.139C129.628 172.141 129.629 172.144 129.631 172.147C129.632 172.149 129.633 172.152 129.634 172.154C129.636 172.157 129.637 172.159 129.638 172.162C129.639 172.164 129.641 172.167 129.642 172.169C129.643 172.172 129.645 172.174 129.646 172.177C129.647 172.179 129.648 172.182 129.65 172.185C129.651 172.187 129.652 172.19 129.653 172.192C129.655 172.195 129.656 172.197 129.657 172.2C129.658 172.202 129.66 172.205 129.661 172.207C129.662 172.21 129.663 172.212 129.665 172.215C129.666 172.217 129.667 172.22 129.668 172.222C129.67 172.225 129.671 172.227 129.672 172.23C129.673 172.232 129.675 172.235 129.676 172.237C129.677 172.24 129.678 172.242 129.68 172.245C129.681 172.247 129.682 172.25 129.683 172.252C129.685 172.255 129.686 172.257 129.687 172.26C129.688 172.262 129.69 172.265 129.691 172.267C129.692 172.27 129.693 172.272 129.695 172.275C129.696 172.277 129.697 172.28 129.698 172.282C129.7 172.284 129.701 172.287 129.702 172.289C129.703 172.292 129.705 172.294 129.706 172.297C129.707 172.299 129.708 172.302 129.709 172.304C129.711 172.307 129.712 172.309 129.713 172.312C129.714 172.314 129.716 172.317 129.717 172.319C129.718 172.321 129.719 172.324 129.721 172.326C129.722 172.329 129.723 172.331 129.724 172.334C129.725 172.336 129.727 172.339 129.728 172.341C129.729 172.344 129.73 172.346 129.732 172.348C129.733 172.351 129.734 172.353 129.735 172.356C129.736 172.358 129.738 172.361 129.739 172.363C129.74 172.365 129.741 172.368 129.742 172.37C129.744 172.373 129.745 172.375 129.746 172.378C129.747 172.38 129.749 172.382 129.75 172.385C129.751 172.387 129.752 172.39 129.753 172.392C129.755 172.395 129.756 172.397 129.757 172.399C129.758 172.402 129.759 172.404 129.761 172.407C129.762 172.409 129.763 172.412 129.764 172.414C129.765 172.416 129.767 172.419 129.768 172.421C129.769 172.424 129.77 172.426 129.771 172.428C129.773 172.431 129.774 172.433 129.775 172.436C129.776 172.438 129.777 172.44 129.779 172.443C129.78 172.445 129.781 172.448 129.782 172.45C129.783 172.452 129.785 172.455 129.786 172.457C129.787 172.459 129.788 172.462 129.789 172.464C129.791 172.467 129.792 172.469 129.793 172.471C129.794 172.474 129.795 172.476 129.797 172.479C129.798 172.481 129.799 172.483 129.8 172.486C129.801 172.488 129.803 172.49 129.804 172.493C129.805 172.495 129.806 172.498 129.807 172.5C129.808 172.502 129.81 172.505 129.811 172.507C129.812 172.509 129.813 172.512 129.814 172.514C129.816 172.516 129.817 172.519 129.818 172.521C129.819 172.523 129.82 172.526 129.821 172.528C129.823 172.531 129.824 172.533 129.825 172.535C129.826 172.538 129.827 172.54 129.828 172.542C129.83 172.545 129.831 172.547 129.832 172.549C129.833 172.552 129.834 172.554 129.835 172.556C129.837 172.559 129.838 172.561 129.839 172.563C129.84 172.566 129.841 172.568 129.842 172.57C129.844 172.573 129.845 172.575 129.846 172.577C129.847 172.58 129.848 172.582 129.849 172.584C129.851 172.587 129.852 172.589 129.853 172.591C129.854 172.594 129.855 172.596 129.856 172.598C129.858 172.6 129.859 172.603 129.86 172.605C129.861 172.607 129.862 172.61 129.863 172.612C129.864 172.614 129.866 172.617 129.867 172.619C129.868 172.621 129.869 172.624 129.87 172.626C129.871 172.628 129.873 172.63 129.874 172.633C129.875 172.635 129.876 172.637 129.877 172.64C129.878 172.642 129.879 172.644 129.881 172.646C129.882 172.649 129.883 172.651 129.884 172.653C129.885 172.656 129.886 172.658 129.887 172.66C129.889 172.662 129.89 172.665 129.891 172.667C129.892 172.669 129.893 172.672 129.894 172.674C129.895 172.676 129.897 172.678 129.898 172.681C129.899 172.683 129.9 172.685 129.901 172.687C129.902 172.69 129.903 172.692 129.904 172.694C129.906 172.697 129.907 172.699 129.908 172.701C129.909 172.703 129.91 172.706 129.911 172.708C129.912 172.71 129.913 172.712 129.915 172.715C129.916 172.717 129.917 172.719 129.918 172.721C129.919 172.724 129.92 172.726 129.921 172.728C129.922 172.73 129.924 172.733 129.925 172.735C129.926 172.737 129.927 172.739 129.928 172.742C129.929 172.744 129.93 172.746 129.931 172.748C129.933 172.75 129.934 172.753 129.935 172.755C129.936 172.757 129.937 172.759 129.938 172.762C129.939 172.764 129.94 172.766 129.941 172.768C129.943 172.771 129.944 172.773 129.945 172.775C129.946 172.777 129.947 172.779 129.948 172.782C129.949 172.784 129.95 172.786 129.951 172.788C129.953 172.79 129.954 172.793 129.955 172.795C129.956 172.797 129.957 172.799 129.958 172.802C129.959 172.804 129.96 172.806 129.961 172.808C129.962 172.81 129.964 172.813 129.965 172.815C129.966 172.817 129.967 172.819 129.968 172.821C129.969 172.824 129.97 172.826 129.971 172.828C129.972 172.83 129.973 172.832 129.975 172.834C129.976 172.837 129.977 172.839 129.978 172.841C129.979 172.843 129.98 172.845 129.981 172.848C129.982 172.85 129.983 172.852 129.984 172.854C129.985 172.856 129.987 172.858 129.988 172.861C129.989 172.863 129.99 172.865 129.991 172.867C129.992 172.869 129.993 172.871 129.994 172.874C129.995 172.876 129.996 172.878 129.997 172.88C129.998 172.882 130 172.884 130.001 172.887C130.002 172.889 130.003 172.891 130.004 172.893C130.005 172.895 130.006 172.897 130.007 172.899C130.008 172.902 130.009 172.904 130.01 172.906C130.011 172.908 130.012 172.91 130.014 172.912C130.015 172.915 130.016 172.917 130.017 172.919C130.018 172.921 130.019 172.923 130.02 172.925C130.021 172.927 130.022 172.929 130.023 172.932C130.024 172.934 130.025 172.936 130.026 172.938C130.027 172.94 130.028 172.942 130.029 172.944C130.031 172.946 130.032 172.949 130.033 172.951C130.034 172.953 130.035 172.955 130.036 172.957C130.037 172.959 130.038 172.961 130.039 172.963C130.04 172.966 130.041 172.968 130.042 172.97C130.043 172.972 130.044 172.974 130.045 172.976C130.046 172.978 130.047 172.98 130.049 172.982C130.05 172.985 130.051 172.987 130.052 172.989C130.053 172.991 130.054 172.993 130.055 172.995C130.056 172.997 130.057 172.999 130.058 173.001C130.059 173.003 130.06 173.005 130.061 173.008C130.062 173.01 130.063 173.012 130.064 173.014C130.065 173.016 130.066 173.018 130.067 173.02C130.068 173.022 130.069 173.024 130.07 173.026C130.071 173.028 130.073 173.03 130.074 173.032C130.075 173.035 130.076 173.037 130.077 173.039C130.078 173.041 130.079 173.043 130.08 173.045C130.081 173.047 130.082 173.049 130.083 173.051C130.084 173.053 130.085 173.055 130.086 173.057C130.087 173.059 130.088 173.061 130.089 173.063C130.09 173.066 130.091 173.068 130.092 173.07C130.093 173.072 130.094 173.074 130.095 173.076C130.096 173.078 130.097 173.08 130.098 173.082C130.099 173.084 130.1 173.086 130.101 173.088C130.102 173.09 130.103 173.092 130.104 173.094C130.105 173.096 130.106 173.098 130.107 173.1C130.108 173.102 130.109 173.104 130.11 173.106C130.111 173.108 130.113 173.11 130.114 173.112C130.115 173.114 130.116 173.116 130.117 173.118C130.118 173.12 130.119 173.123 130.12 173.125C130.121 173.127 130.122 173.129 130.123 173.131C130.124 173.133 130.125 173.135 130.126 173.137C130.127 173.139 130.128 173.141 130.129 173.143C130.13 173.145 130.131 173.147 130.132 173.149C130.133 173.151 130.134 173.153 130.135 173.155C130.136 173.157 130.137 173.159 130.138 173.161C130.139 173.163 130.14 173.165 130.141 173.167C130.142 173.169 130.143 173.171 130.144 173.173C130.145 173.175 130.146 173.177 130.147 173.179C130.148 173.181 130.149 173.183 130.15 173.185C130.151 173.187 130.152 173.188 130.153 173.19C130.154 173.192 130.155 173.194 130.156 173.196C130.156 173.198 130.157 173.2 130.158 173.202C130.159 173.204 130.16 173.206 130.161 173.208C130.162 173.21 130.163 173.212 130.164 173.214C130.165 173.216 130.166 173.218 130.167 173.22C130.168 173.222 130.169 173.224 130.17 173.226C130.171 173.228 130.172 173.23 130.173 173.232C130.174 173.234 130.175 173.236 130.176 173.238C130.177 173.24 130.178 173.241 130.179 173.243C130.18 173.245 130.181 173.247 130.182 173.249C130.183 173.251 130.184 173.253 130.185 173.255C130.186 173.257 130.187 173.259 130.188 173.261C130.189 173.263 130.19 173.265 130.191 173.267C130.192 173.269 130.193 173.271 130.194 173.272C130.194 173.274 130.195 173.276 130.196 173.278C130.197 173.28 130.198 173.282 130.199 173.284C130.2 173.286 130.201 173.288 130.202 173.29C130.203 173.292 130.204 173.294 130.205 173.295C130.206 173.297 130.207 173.299 130.208 173.301C130.209 173.303 130.21 173.305 130.211 173.307C130.212 173.309 130.213 173.311 130.214 173.313C130.215 173.315 130.216 173.316 130.216 173.318C130.217 173.32 130.218 173.322 130.219 173.324C130.22 173.326 130.221 173.328 130.222 173.33C130.223 173.332 130.224 173.333 130.225 173.335C130.226 173.337 130.227 173.339 130.228 173.341C130.229 173.343 130.23 173.345 130.231 173.347C130.232 173.349 130.233 173.35 130.233 173.352L166.011 155.464ZM163.982 151.412L156.494 135.86L120.454 153.212L127.942 168.764L163.982 151.412ZM138.474 124.536H98.586V164.536H138.474V124.536ZM80.566 135.86L73.078 151.412L109.118 168.764L116.606 153.212L80.566 135.86ZM73.2095 151.144C72.8116 151.94 72.5079 152.516 72.2904 152.91C72.0511 153.344 72.0143 153.378 72.153 153.17L105.435 175.358C106.736 173.406 107.959 171.086 108.987 169.032L73.2095 151.144ZM71.3109 154.551C72.0705 153.184 72.8406 152.291 73.2669 151.841C73.7071 151.376 74.0009 151.153 74.0078 151.148L98.3962 182.852C100.671 181.103 103.918 178.223 106.277 173.977L71.3109 154.551ZM74.202 151C77.5052 148.523 80.6191 148.296 81.594 148.296V188.296C86.4089 188.296 92.5948 187.205 98.202 183L74.202 151ZM81.594 148.296C82.6019 148.296 83.35 148.406 83.7637 148.483C84.1867 148.562 84.4183 148.637 84.4265 148.64C84.4414 148.644 84.3186 148.605 84.0429 148.489C83.771 148.375 83.3948 148.204 82.9063 147.959L65.0177 183.737C68.8152 185.635 74.8727 188.296 81.594 188.296V148.296ZM82.657 147.837C81.1584 147.113 81.5505 147.03 82.5177 148.098C83.0704 148.707 83.8705 149.763 84.5289 151.306C85.2097 152.903 85.61 154.727 85.61 156.632H45.61C45.61 172.496 58.4397 180.563 65.267 183.859L82.657 147.837ZM85.61 156.632C85.61 157.842 85.4643 158.729 85.3746 159.177C85.3258 159.421 85.28 159.602 85.2495 159.714C85.2188 159.827 85.1982 159.889 85.1957 159.897C85.1933 159.903 85.2399 159.765 85.3699 159.461C85.4978 159.163 85.6845 158.756 85.9465 158.232L50.1695 140.344C48.4591 143.764 45.61 149.903 45.61 156.632H85.61ZM86.0673 157.987L124.947 77.4906L88.9287 60.0934L50.0487 140.589L86.0673 157.987ZM124.981 77.4211C124.719 77.9684 124.342 78.5581 123.844 79.1163C123.348 79.6721 122.844 80.0721 122.428 80.3372L100.952 46.5908C95.7578 49.8965 91.6052 54.4968 88.8953 60.1629L124.981 77.4211ZM122.089 80.548C121.808 80.719 121.332 80.9601 120.674 81.152C120.007 81.3466 119.297 81.448 118.602 81.448V41.448C112.251 41.448 106.382 43.2813 101.291 46.38L122.089 80.548ZM118.602 81.448C117.85 81.448 116.209 81.219 114.47 80.0889C112.816 79.0137 112.23 77.8735 112.233 77.8803L148.011 59.9917C145.518 55.0065 141.764 50.1223 136.27 46.5511C130.691 42.925 124.538 41.448 118.602 41.448V81.448ZM100.44 94.8157L90.9359 114.544L126.972 131.904L136.476 112.176L100.44 94.8157ZM108.954 143.224H128.106V103.224H108.954V143.224ZM146.073 114.437L136.425 94.7094L100.491 112.283L110.139 132.011L146.073 114.437ZM231.735 61.304L231.843 41.3043L231.789 41.304H231.735V61.304ZM258.375 61.448L258.267 81.4477L258.321 81.448H258.375V61.448ZM295.095 76.568L281.286 91.0351L281.32 91.0681L281.355 91.1009L295.095 76.568ZM295.383 151.16L281.176 137.083L281.143 137.116L281.111 137.149L295.383 151.16ZM220.647 163.256L203.283 173.179L203.388 173.363L203.498 173.546L220.647 163.256ZM219.063 68.936L199.386 65.3583L199.226 66.2364L199.146 67.1253L219.063 68.936ZM220.503 65.192L238.15 74.6038L238.205 74.5014L238.258 74.3983L220.503 65.192ZM277.095 133.736L290.587 148.5L290.656 148.437L290.724 148.374L277.095 133.736ZM277.239 94.856L263.225 109.125L263.354 109.251L263.484 109.375L277.239 94.856ZM244.407 86.936V66.936H224.407V86.936H244.407ZM244.407 141.368H224.407V161.368H244.407V141.368ZM231.627 81.3037L258.267 81.4477L258.483 41.4483L231.843 41.3043L231.627 81.3037ZM258.375 81.448C266.881 81.448 274.246 84.3151 281.286 91.0351L308.905 62.1009C294.825 48.6609 277.709 41.448 258.375 41.448V81.448ZM281.355 91.1009C287.871 97.2615 290.935 104.32 290.935 113.576H330.935C330.935 93.4559 323.44 75.8424 308.836 62.0351L281.355 91.1009ZM290.935 113.576C290.935 122.84 287.873 130.325 281.176 137.083L309.591 165.237C323.63 151.067 330.935 133.496 330.935 113.576H290.935ZM281.111 137.149C274.607 143.775 267.273 146.856 257.943 146.856V186.856C277.99 186.856 295.616 179.473 309.656 165.171L281.111 137.149ZM257.943 146.856H231.591V186.856H257.943V146.856ZM231.591 146.856C229.794 146.856 229.755 146.642 230.713 146.957C231.751 147.299 235.261 148.738 237.797 152.966L203.498 173.546C207.474 180.174 213.528 183.413 218.214 184.955C222.82 186.47 227.533 186.856 231.591 186.856V146.856ZM238.012 153.333C238.449 154.097 238.696 154.723 238.829 155.114C238.962 155.506 239.006 155.738 239.009 155.754C239.013 155.774 238.988 155.647 238.964 155.343C238.94 155.042 238.919 154.613 238.919 154.04H198.919C198.919 159.316 199.53 166.613 203.283 173.179L238.012 153.333ZM238.919 154.04V73.976H198.919V154.04H238.919ZM238.919 73.976C238.919 72.9502 238.93 72.1539 238.947 71.5592C238.965 70.9244 238.986 70.6968 238.981 70.7467L199.146 67.1253C198.962 69.1466 198.919 71.5977 198.919 73.976H238.919ZM238.741 72.5137C238.567 73.4714 238.339 74.1162 238.234 74.3876C238.125 74.6725 238.071 74.7523 238.15 74.6038L202.856 55.7802C201.566 58.2004 200.088 61.4959 199.386 65.3583L238.741 72.5137ZM238.258 74.3983C235.836 79.0712 232.071 80.7572 230.862 81.1757C229.802 81.5425 229.803 81.304 231.735 81.304V41.304C227.524 41.304 222.581 41.7135 217.777 43.3763C212.824 45.0908 206.515 48.7208 202.748 55.9857L238.258 74.3983ZM258.375 161.368C270.754 161.368 281.698 156.623 290.587 148.5L263.604 118.972C261.357 121.025 259.821 121.368 258.375 121.368V161.368ZM290.724 148.374C300.456 139.313 305.447 127.485 305.447 114.296H265.447C265.447 116.659 264.871 117.791 263.467 119.098L290.724 148.374ZM305.447 114.296C305.447 101.224 300.593 89.4305 290.994 80.3369L263.484 109.375C264.83 110.649 265.447 111.816 265.447 114.296H305.447ZM291.254 80.587C282.274 71.7682 270.958 66.936 258.231 66.936V106.936C260.097 106.936 261.452 107.384 263.225 109.125L291.254 80.587ZM258.231 66.936H244.407V106.936H258.231V66.936ZM224.407 86.936V141.368H264.407V86.936H224.407ZM244.407 161.368H258.375V121.368H244.407V161.368ZM205.995 210.48L188.24 219.686L188.294 219.789L188.348 219.892L205.995 210.48ZM207.291 214.368L187.36 216.029L187.429 216.847L187.563 217.656L207.291 214.368ZM202.107 310.992L208.13 330.064L202.107 310.992ZM188.571 311.136L182.928 330.323L182.928 330.323L188.571 311.136ZM184.827 309.408L197.106 293.621L197.106 293.621L184.827 309.408ZM182.811 306.528L163.624 312.171L163.853 312.95L164.144 313.708L182.811 306.528ZM182.091 250.8H202.091V194.14L166.523 238.245L182.091 250.8ZM171.579 265.056L187.838 276.704L187.878 276.647L187.919 276.59L171.579 265.056ZM162.795 277.152L178.683 289.301L178.683 289.301L162.795 277.152ZM160.203 280.608L175.568 293.412L176.045 292.839L176.478 292.233L160.203 280.608ZM156.603 283.2L166.624 300.509L166.759 300.43L166.893 300.35L156.603 283.2ZM144.651 283.344L134.222 300.41L134.769 300.744L135.336 301.042L144.651 283.344ZM140.907 280.32L124.733 292.083L125.003 292.455L125.29 292.814L140.907 280.32ZM139.755 278.736L155.93 266.973L155.66 266.601L155.373 266.242L139.755 278.736ZM128.379 263.472L112.145 275.153L112.179 275.2L112.213 275.247L128.379 263.472ZM119.163 250.8L134.528 237.996L99.1634 195.559V250.8H119.163ZM118.875 304.368L99.1475 301.08L99.025 301.815L98.9575 302.557L118.875 304.368ZM117.579 307.968L100.215 298.045L100.155 298.15L100.096 298.255L117.579 307.968ZM95.4034 307.968L112.887 298.255L112.828 298.15L112.768 298.045L95.4034 307.968ZM93.9634 304.224L74.0325 305.885L74.1006 306.703L74.2355 307.512L93.9634 304.224ZM93.9634 214.224L74.2355 210.936L74.113 211.671L74.0455 212.413L93.9634 214.224ZM95.4034 210.336L78.0797 200.342L77.9131 200.63L77.7563 200.924L95.4034 210.336ZM113.259 207.6L106.345 226.367L106.923 226.58L107.512 226.757L113.259 207.6ZM117.003 209.472L101.818 222.488L102.318 223.071L102.861 223.614L117.003 209.472ZM117.867 210.336L133.777 198.217L132.961 197.146L132.009 196.194L117.867 210.336ZM150.555 253.248L134.646 265.367L150.62 286.339L166.513 265.305L150.555 253.248ZM183.243 210.48L198.924 222.894L199.594 222.049L200.168 221.136L183.243 210.48ZM188.348 219.892C188.303 219.806 188.121 219.454 187.922 218.857C187.722 218.259 187.466 217.296 187.36 216.029L227.222 212.707C226.827 207.97 225.202 203.992 223.642 201.068L188.348 219.892ZM187.563 217.656C187.528 217.446 187.518 217.336 187.52 217.354C187.521 217.368 187.53 217.456 187.54 217.633C187.561 217.997 187.579 218.575 187.579 219.408H227.579C227.579 216.886 227.487 213.888 227.019 211.08L187.563 217.656ZM187.579 219.408V299.328H227.579V219.408H187.579ZM187.579 299.328C187.579 301.14 187.277 300.481 188.105 298.718C188.582 297.701 189.457 296.281 190.952 294.904C192.489 293.488 194.28 292.49 196.085 291.92L208.13 330.064C225.365 324.621 227.579 307.466 227.579 299.328H187.579ZM196.085 291.92C196.541 291.776 196.726 291.77 196.531 291.794C196.344 291.818 195.915 291.856 195.195 291.856V331.856C199.18 331.856 203.691 331.466 208.13 330.064L196.085 291.92ZM195.195 291.856C194.353 291.856 193.846 291.818 193.613 291.793C193.504 291.781 193.501 291.777 193.589 291.794C193.675 291.81 193.892 291.854 194.215 291.949L182.928 330.323C187.182 331.575 191.55 331.856 195.195 331.856V291.856ZM194.215 291.949C194.125 291.922 194.351 291.981 194.793 292.185C195.219 292.382 196.074 292.818 197.106 293.621L172.549 325.195C176.177 328.017 180.078 329.485 182.928 330.323L194.215 291.949ZM197.106 293.621C199.691 295.631 200.941 297.952 201.478 299.348L164.144 313.708C165.642 317.6 168.236 321.841 172.549 325.195L197.106 293.621ZM201.999 300.885C202.134 301.345 202.187 301.64 202.199 301.706C202.212 301.781 202.2 301.727 202.18 301.518C202.137 301.078 202.091 300.28 202.091 299.04H162.091C162.091 302.832 162.305 307.688 163.624 312.171L201.999 300.885ZM202.091 299.04V250.8H162.091V299.04H202.091ZM166.523 238.245C163.699 241.746 159.89 246.935 155.24 253.522L187.919 276.59C192.485 270.121 195.683 265.806 197.66 263.355L166.523 238.245ZM155.321 253.408C150.65 259.928 147.925 263.673 146.908 265.003L178.683 289.301C180.162 287.367 183.293 283.048 187.838 276.704L155.321 253.408ZM146.908 265.003C145.665 266.629 144.62 268.016 143.929 268.983L176.478 292.233C176.747 291.856 177.43 290.939 178.683 289.301L146.908 265.003ZM144.839 267.804C145.29 267.263 145.69 266.849 145.978 266.566C146.272 266.278 146.519 266.057 146.693 265.909C147.026 265.623 147.241 265.469 147.257 265.457C147.276 265.444 147.011 265.631 146.313 266.05L166.893 300.35C168.115 299.617 169.411 298.796 170.629 297.919C171.544 297.26 173.655 295.707 175.568 293.412L144.839 267.804ZM146.583 265.891C147.205 265.531 147.909 265.236 148.656 265.041C149.398 264.846 150.051 264.784 150.555 264.784V304.784C156.108 304.784 161.607 303.413 166.624 300.509L146.583 265.891ZM150.555 264.784C151.028 264.784 151.602 264.839 152.234 264.994C152.869 265.148 153.455 265.377 153.966 265.646L135.336 301.042C140.105 303.552 145.281 304.784 150.555 304.784V264.784ZM155.08 266.278C154.778 266.093 154.782 266.073 154.986 266.237C155.167 266.383 155.781 266.896 156.525 267.826L125.29 292.814C128.145 296.383 131.624 298.822 134.222 300.41L155.08 266.278ZM157.082 268.557L155.93 266.973L123.581 290.499L124.733 292.083L157.082 268.557ZM155.373 266.242C153.785 264.258 150.262 259.545 144.545 251.697L112.213 275.247C117.824 282.951 121.886 288.414 124.138 291.23L155.373 266.242ZM144.614 251.791C139.35 244.476 135.608 239.293 134.528 237.996L103.799 263.604C103.466 263.204 103.361 263.041 103.933 263.813C104.328 264.348 104.897 265.124 105.653 266.163C107.158 268.234 109.319 271.225 112.145 275.153L144.614 251.791ZM99.1634 250.8V299.328H139.163V250.8H99.1634ZM99.1634 299.328C99.1634 300.161 99.1448 300.739 99.1239 301.103C99.1139 301.28 99.1054 301.368 99.104 301.382C99.1021 301.4 99.1124 301.29 99.1475 301.08L138.603 307.656C139.071 304.848 139.163 301.85 139.163 299.328H99.1634ZM98.9575 302.557C99.091 301.089 99.4136 299.974 99.6616 299.286C99.9103 298.595 100.141 298.174 100.215 298.045L134.944 317.891C136.533 315.11 138.347 311.092 138.793 306.179L98.9575 302.557ZM100.096 298.255C102.475 293.974 105.956 292.397 107.149 291.984C108.183 291.626 108.19 291.856 106.347 291.856V331.856C110.552 331.856 115.455 331.438 120.234 329.784C125.17 328.075 131.244 324.554 135.063 317.681L100.096 298.255ZM106.347 291.856C104.653 291.856 104.784 291.636 105.915 292.038C107.246 292.511 110.596 294.132 112.887 298.255L77.9202 317.681C81.6511 324.396 87.5446 327.961 92.5241 329.73C97.3024 331.428 102.186 331.856 106.347 331.856V291.856ZM112.768 298.045C112.814 298.126 113.391 299.132 113.691 300.936L74.2355 307.512C74.9201 311.62 76.4564 315.122 78.0385 317.891L112.768 298.045ZM113.894 302.563C113.87 302.27 113.819 301.219 113.819 299.04H73.8194C73.8194 301.469 73.8649 303.874 74.0325 305.885L113.894 302.563ZM113.819 299.04V219.12H73.8194V299.04H113.819ZM113.819 219.12C113.819 218.149 113.83 217.394 113.847 216.828C113.864 216.228 113.884 216.001 113.881 216.035L74.0455 212.413C73.863 214.42 73.8194 216.807 73.8194 219.12H113.819ZM113.691 217.512C113.546 218.386 113.344 219.005 113.222 219.334C113.099 219.667 113.017 219.81 113.05 219.748L77.7563 200.924C76.3409 203.578 74.8949 206.98 74.2355 210.936L113.691 217.512ZM112.727 220.33C110.225 224.667 106.661 226.153 105.616 226.502C104.666 226.818 104.743 226.592 106.635 226.592V186.592C102.48 186.592 97.6603 186.99 92.9668 188.554C88.1779 190.151 82.0214 193.509 78.0797 200.342L112.727 220.33ZM106.635 226.592C107.08 226.592 107.261 226.622 107.227 226.616C107.191 226.611 106.868 226.56 106.345 226.367L120.174 188.833C115.534 187.124 110.847 186.592 106.635 186.592V226.592ZM107.512 226.757C107.804 226.844 107.432 226.759 106.691 226.389C106.298 226.192 105.646 225.838 104.861 225.281C104.091 224.733 102.972 223.834 101.818 222.488L132.189 196.456C129.456 193.268 126.367 191.505 124.58 190.611C122.591 189.617 120.635 188.932 119.006 188.443L107.512 226.757ZM102.861 223.614L103.725 224.478L132.009 196.194L131.145 195.33L102.861 223.614ZM101.958 222.455L134.646 265.367L166.465 241.129L133.777 198.217L101.958 222.455ZM166.513 265.305C182.858 243.671 193.617 229.598 198.924 222.894L167.562 198.066C161.926 205.186 150.893 219.625 134.598 241.191L166.513 265.305ZM200.168 221.136C197.839 224.835 194.765 226.169 193.743 226.514C192.854 226.814 192.952 226.592 194.763 226.592V186.592C188.146 186.592 174.032 187.574 166.319 199.824L200.168 221.136ZM194.763 226.592C196.696 226.592 196.697 226.83 195.637 226.464C194.428 226.045 190.663 224.359 188.24 219.686L223.75 201.274C219.984 194.009 213.675 190.379 208.722 188.664C203.918 187.002 198.975 186.592 194.763 186.592V226.592ZM258.86 214.224L239.132 210.936L239.01 211.671L238.942 212.413L258.86 214.224ZM260.3 210.336L277.947 219.748L278.002 219.645L278.055 219.542L260.3 210.336ZM283.484 211.776L302.672 206.133L302.525 205.635L302.353 205.146L283.484 211.776ZM283.916 304.368L264.239 300.79L264.079 301.668L263.998 302.557L283.916 304.368ZM282.62 308.112L264.973 298.7L264.919 298.803L264.865 298.906L282.62 308.112ZM259.58 306.528L278.652 300.505L278.493 300.001L278.307 299.506L259.58 306.528ZM278.716 219.12C278.716 218.149 278.727 217.394 278.744 216.828C278.761 216.228 278.781 216.001 278.778 216.035L238.942 212.413C238.76 214.42 238.716 216.807 238.716 219.12H278.716ZM278.588 217.512C278.443 218.386 278.241 219.005 278.119 219.334C277.996 219.667 277.914 219.81 277.947 219.748L242.653 200.924C241.238 203.578 239.792 206.98 239.132 210.936L278.588 217.512ZM278.055 219.542C275.632 224.215 271.868 225.901 270.658 226.32C269.599 226.686 269.6 226.448 271.532 226.448V186.448C267.321 186.448 262.378 186.858 257.574 188.52C252.621 190.235 246.312 193.865 242.545 201.13L278.055 219.542ZM271.532 226.448C273.451 226.448 272.994 226.75 271.417 226.047C270.501 225.639 269.138 224.856 267.765 223.458C266.345 222.012 265.267 220.262 264.615 218.406L302.353 205.146C296.465 188.388 279.448 186.448 271.532 186.448V226.448ZM264.297 217.419C264.162 216.959 264.108 216.664 264.097 216.598C264.084 216.523 264.096 216.577 264.116 216.786C264.158 217.226 264.204 218.024 264.204 219.264H304.204C304.204 215.472 303.99 210.616 302.672 206.133L264.297 217.419ZM264.204 219.264V299.328H304.204V219.264H264.204ZM264.204 299.328C264.204 300.227 264.185 300.824 264.165 301.175C264.155 301.344 264.148 301.401 264.152 301.365C264.155 301.341 264.177 301.132 264.239 300.79L303.594 307.946C304.129 305.002 304.204 301.792 304.204 299.328H264.204ZM263.998 302.557C264.128 301.136 264.43 300.103 264.621 299.554C264.721 299.262 264.811 299.048 264.87 298.915C264.93 298.781 264.969 298.709 264.973 298.7L300.267 317.524C301.684 314.867 303.402 310.934 303.834 306.179L263.998 302.557ZM264.865 298.906C267.288 294.233 271.053 292.547 272.262 292.128C273.322 291.762 273.321 292 271.388 292V332C275.6 332 280.543 331.59 285.346 329.928C290.3 328.213 296.608 324.583 300.375 317.318L264.865 298.906ZM271.388 292C269.498 292 270.09 291.691 271.805 292.486C272.8 292.947 274.222 293.807 275.613 295.303C277.046 296.845 278.069 298.658 278.652 300.505L240.509 312.551C245.985 329.892 263.348 332 271.388 332V292ZM278.307 299.506C278.444 299.871 278.541 300.179 278.608 300.415C278.676 300.652 278.72 300.839 278.748 300.966C278.801 301.21 278.807 301.303 278.795 301.203C278.784 301.109 278.763 300.896 278.746 300.542C278.728 300.192 278.716 299.743 278.716 299.184H238.716C238.716 302.966 238.945 308.461 240.854 313.55L278.307 299.506ZM278.716 299.184V219.12H238.716V299.184H278.716Z" fill="black"/>
</g>
<path d="M130.122 68.936L169.002 149.288C170.634 152.552 171.45 155 171.45 156.632C171.45 160.088 168.666 163.208 163.098 165.992C159.834 167.624 157.242 168.44 155.322 168.44C153.498 168.44 151.962 168.008 150.714 167.144C149.562 166.28 148.698 165.368 148.122 164.408C147.642 163.448 146.922 162.008 145.962 160.088L138.474 144.536H98.586L91.098 160.088C90.138 162.008 89.37 163.4 88.794 164.264C88.314 165.128 87.45 166.04 86.202 167C85.05 167.864 83.514 168.296 81.594 168.296C79.77 168.296 77.226 167.48 73.962 165.848C68.394 163.16 65.61 160.088 65.61 156.632C65.61 155 66.426 152.552 68.058 149.288L106.938 68.792C107.994 66.584 109.578 64.808 111.69 63.464C113.898 62.12 116.202 61.448 118.602 61.448C123.786 61.448 127.626 63.944 130.122 68.936ZM118.458 103.496L108.954 123.224H128.106L118.458 103.496ZM231.735 61.304L258.375 61.448C272.295 61.448 284.535 66.488 295.095 76.568C305.655 86.552 310.935 98.888 310.935 113.576C310.935 128.168 305.751 140.696 295.383 151.16C285.111 161.624 272.631 166.856 257.943 166.856H231.591C225.735 166.856 222.087 165.656 220.647 163.256C219.495 161.24 218.919 158.168 218.919 154.04V73.976C218.919 71.672 218.967 69.992 219.063 68.936C219.255 67.88 219.735 66.632 220.503 65.192C221.847 62.6 225.591 61.304 231.735 61.304ZM258.375 141.368C265.287 141.368 271.527 138.824 277.095 133.736C282.663 128.552 285.447 122.072 285.447 114.296C285.447 106.52 282.711 100.04 277.239 94.856C271.863 89.576 265.527 86.936 258.231 86.936H244.407V141.368H258.375ZM205.995 210.48C206.763 211.92 207.195 213.216 207.291 214.368C207.483 215.52 207.579 217.2 207.579 219.408V299.328C207.579 305.952 205.755 309.84 202.107 310.992C200.283 311.568 197.979 311.856 195.195 311.856C192.411 311.856 190.203 311.616 188.571 311.136C186.939 310.656 185.691 310.08 184.827 309.408C183.963 308.736 183.291 307.776 182.811 306.528C182.331 304.896 182.091 302.4 182.091 299.04V250.8C179.691 253.776 176.187 258.528 171.579 265.056C166.971 271.488 164.043 275.52 162.795 277.152C161.547 278.784 160.683 279.936 160.203 280.608C159.723 281.184 158.523 282.048 156.603 283.2C154.779 284.256 152.763 284.784 150.555 284.784C148.443 284.784 146.475 284.304 144.651 283.344C142.923 282.288 141.675 281.28 140.907 280.32L139.755 278.736C137.835 276.336 134.043 271.248 128.379 263.472C122.715 255.6 119.643 251.376 119.163 250.8V299.328C119.163 301.536 119.067 303.216 118.875 304.368C118.779 305.424 118.347 306.624 117.579 307.968C116.139 310.56 112.395 311.856 106.347 311.856C100.491 311.856 96.8434 310.56 95.4034 307.968C94.6354 306.624 94.1554 305.376 93.9634 304.224C93.8674 303.072 93.8194 301.344 93.8194 299.04V219.12C93.8194 216.912 93.8674 215.28 93.9634 214.224C94.1554 213.072 94.6354 211.776 95.4034 210.336C96.8434 207.84 100.587 206.592 106.635 206.592C109.227 206.592 111.435 206.928 113.259 207.6C115.179 208.176 116.427 208.8 117.003 209.472L117.867 210.336L150.555 253.248C166.875 231.648 177.771 217.392 183.243 210.48C184.875 207.888 188.715 206.592 194.763 206.592C200.907 206.592 204.651 207.888 205.995 210.48ZM258.716 219.12C258.716 216.912 258.764 215.28 258.86 214.224C259.052 213.072 259.532 211.776 260.3 210.336C261.644 207.744 265.388 206.448 271.532 206.448C278.252 206.448 282.236 208.224 283.484 211.776C283.964 213.408 284.204 215.904 284.204 219.264V299.328C284.204 301.632 284.108 303.312 283.916 304.368C283.82 305.424 283.388 306.672 282.62 308.112C281.276 310.704 277.532 312 271.388 312C264.668 312 260.732 310.176 259.58 306.528C259.004 304.992 258.716 302.544 258.716 299.184V219.12Z" fill="white"/>
<defs>
<filter id="filter0_dddddd_103_3" x="0.609985" y="0.304001" width="375.325" height="380.696" filterUnits="userSpaceOnUse" color-interpolation-filters="sRGB">
<feFlood flood-opacity="0" result="BackgroundImageFix"/>
<feColorMatrix in="SourceAlpha" type="matrix" values="0 0 0 0 0 0 0 0 0 0 0 0 0 0 0 0 0 0 127 0" result="hardAlpha"/>
<feOffset dy="0.11069"/>
<feGaussianBlur stdDeviation="0.899358"/>
<feColorMatrix type="matrix" values="0 0 0 0 0.133333 0 0 0 0 0.133333 0 0 0 0 0.133333 0 0 0 0.0646635 0"/>
<feBlend mode="normal" in2="BackgroundImageFix" result="effect1_dropShadow_103_3"/>
<feColorMatrix in="SourceAlpha" type="matrix" values="0 0 0 0 0 0 0 0 0 0 0 0 0 0 0 0 0 0 127 0" result="hardAlpha"/>
<feOffset dy="0.266004"/>
<feGaussianBlur stdDeviation="2.16128"/>
<feColorMatrix type="matrix" values="0 0 0 0 0.133333 0 0 0 0 0.133333 0 0 0 0 0.133333 0 0 0 0.0928953 0"/>
<feBlend mode="normal" in2="effect1_dropShadow_103_3" result="effect2_dropShadow_103_3"/>
<feColorMatrix in="SourceAlpha" type="matrix" values="0 0 0 0 0 0 0 0 0 0 0 0 0 0 0 0 0 0 127 0" result="hardAlpha"/>
<feOffset dy="0.500862"/>
<feGaussianBlur stdDeviation="4.0695"/>
<feColorMatrix type="matrix" values="0 0 0 0 0.133333 0 0 0 0 0.133333 0 0 0 0 0.133333 0 0 0 0.115 0"/>
<feBlend mode="normal" in2="effect2_dropShadow_103_3" result="effect3_dropShadow_103_3"/>
<feColorMatrix in="SourceAlpha" type="matrix" values="0 0 0 0 0 0 0 0 0 0 0 0 0 0 0 0 0 0 127 0" result="hardAlpha"/>
<feOffset dy="0.893452"/>
<feGaussianBlur stdDeviation="7.2593"/>
<feColorMatrix type="matrix" values="0 0 0 0 0.133333 0 0 0 0 0.133333 0 0 0 0 0.133333 0 0 0 0.137105 0"/>
<feBlend mode="normal" in2="effect3_dropShadow_103_3" result="effect4_dropShadow_103_3"/>
<feColorMatrix in="SourceAlpha" type="matrix" values="0 0 0 0 0 0 0 0 0 0 0 0 0 0 0 0 0 0 127 0" result="hardAlpha"/>
<feOffset dy="1.6711"/>
<feGaussianBlur stdDeviation="13.5777"/>
<feColorMatrix type="matrix" values="0 0 0 0 0.133333 0 0 0 0 0.133333 0 0 0 0 0.133333 0 0 0 0.165337 0"/>
<feBlend mode="normal" in2="effect4_dropShadow_103_3" result="effect5_dropShadow_103_3"/>
<feColorMatrix in="SourceAlpha" type="matrix" values="0 0 0 0 0 0 0 0 0 0 0 0 0 0 0 0 0 0 127 0" result="hardAlpha"/>
<feOffset dy="4"/>
<feGaussianBlur stdDeviation="32.5"/>
<feColorMatrix type="matrix" values="0 0 0 0 0.133333 0 0 0 0 0.133333 0 0 0 0 0.133333 0 0 0 0.23 0"/>
<feBlend mode="normal" in2="effect5_dropShadow_103_3" result="effect6_dropShadow_103_3"/>
<feBlend mode="normal" in="SourceGraphic" in2="effect6_dropShadow_103_3" result="shape"/>
</filter>
</defs>
</svg>
